<!DOCTYPE svg PUBLIC "-//W3C//DTD SVG 20010904//EN" "http://www.w3.org/TR/2001/REC-SVG-20010904/DTD/svg10.dtd">
<svg version="1.0" xmlns="http://www.w3.org/2000/svg" width="512px" height="512px" viewBox="0 0 5120 5120" preserveAspectRatio="xMidYMid meet">
<g id="layer101" fill="#000000" stroke="none">
</g>
<g id="layer102" fill="#2b2a26" stroke="none">
<path d="M2360 5104 c-184 -21 -236 -29 -338 -50 -692 -143 -1309 -590 -1671 -1208 -174 -298 -287 -636 -332 -991 -18 -145 -16 -473 5 -625 77 -568 324 -1068 726 -1470 208 -208 422 -362 685 -491 980 -481 2163 -283 2934 490 487 488 744 1111 744 1801 0 690 -258 1313 -744 1801 -391 392 -876 636 -1439 724 -100 16 -488 29 -570 19z"/>
</g>
<g id="layer103" fill="#4b493f" stroke="none">
<path d="M2360 5103 c-519 -49 -938 -206 -1328 -497 -564 -421 -924 -1043 -1013 -1751 -18 -145 -16 -473 5 -625 77 -568 324 -1068 726 -1470 208 -208 422 -362 685 -491 324 -159 731 -259 1052 -259 l73 0 0 749 0 748 77 7 c456 42 823 347 940 782 24 88 27 117 27 264 0 147 -3 176 -27 264 -117 435 -484 740 -940 782 l-77 7 0 748 0 749 -82 -2 c-46 0 -99 -3 -118 -5z m-806 -953 c53 -26 78 -62 84 -120 6 -60 -13 -97 -75 -146 -333 -265 -529 -569 -622 -962 -11 -46 -27 -95 -36 -108 -25 -39 -75 -64 -125 -64 -62 0 -106 29 -132 88 -21 46 -21 48 -4 132 55 274 207 590 393 821 71 87 232 244 322 313 90 70 129 79 195 46z m1059 -1454 c90 -41 124 -134 75 -206 -53 -77 -127 -99 -198 -59 -103 58 -105 194 -4 255 45 27 81 30 127 10z"/>
</g>
<g id="layer104" fill="#ff9301" stroke="none">
<path d="M2474 3600 c-170 -14 -354 -79 -501 -177 -137 -90 -280 -256 -353 -407 -239 -496 -58 -1083 420 -1360 343 -200 786 -183 1114 44 87 60 224 199 280 283 58 88 114 217 143 325 22 84 26 117 26 252 0 135 -4 168 -26 252 -52 198 -150 361 -302 506 -218 207 -500 307 -801 282z m174 -917 c42 -30 64 -81 59 -134 -10 -114 -120 -172 -219 -117 -101 57 -102 193 -2 255 47 29 120 27 162 -4z"/>
</g>
<g id="layer105" fill="#ffc12e" stroke="none">
<path d="M2360 3585 c-190 -38 -373 -132 -514 -265 -338 -317 -426 -809 -221 -1225 144 -290 421 -499 743 -561 41 -8 100 -14 133 -14 l59 0 0 445 c0 403 -2 445 -16 445 -33 0 -96 45 -115 82 -24 47 -24 89 0 136 19 37 82 82 115 82 14 0 16 42 16 445 l0 445 -67 -1 c-38 0 -97 -7 -133 -14z"/>
</g>


</svg>